<svg x="0" y="0" width="300" height="300" version="1.1" xmlns="http://www.w3.org/2000/svg" xmlns:xlink="http://www.w3.org/1999/xlink"><g data-paper-data="{&quot;description&quot;:&quot;Logo for termbox\n================\n\nThis logo was generated by MarkMaker and is composed of elements designed by others.\n\nThe font is Kadwa designed by Sol Matas and released under the OFL license via Google Fonts: https://www.google.com/fonts/specimen/Kadwa. The font includes this copyright statement: Copyright (c) 2014-2015, Sol Matas (www.huertatipografica.com - sol@huertatipografica.com)\n\nMarkMaker uses semantic data from the Princeton University WordNet database http://wordnet.princeton.edu and font descriptions from Google Fonts https://www.google.com/fonts.\n\nThis design is inspired by designs that past users of MarkMaker have liked. As a result, it may be visually similar to past or future designs generated by the system. There is no guarantee that it is unique, original, or suitable in any way for use as a logo.\n\n&quot;}" fill="none" stroke="none" stroke-width="none" stroke-linecap="butt" stroke-linejoin="miter" stroke-miterlimit="10" stroke-dasharray="" stroke-dashoffset="0" font-family="sans-serif" font-weight="normal" font-size="12" text-anchor="start" mix-blend-mode="normal"><path d="M30,167.97339l0,-35.94677l37.58954,0l0,35.94677z" fill="#203d50" stroke="none" stroke-width="0"></path><g data-paper-data="{&quot;elementType&quot;:&quot;logo&quot;}" fill="#203d50" stroke-width="1"><g data-paper-data="{&quot;elementType&quot;:&quot;text&quot;}"><g data-paper-data="{&quot;baseline&quot;:77.001953125,&quot;elementType&quot;:&quot;row&quot;}"><g data-paper-data="{&quot;baselineProportion&quot;:0.9874765184721352,&quot;fontSize&quot;:100,&quot;baseline&quot;:77.001953125,&quot;elementType&quot;:&quot;word&quot;}"><path d="M93.86207,147.33291l-5.52004,0l0,12.22959c0,1.54883 0.63192,2.32325 1.89577,2.32325c0.81778,0 1.80904,-0.31596 2.97376,-0.94789l1.02223,2.00729c-1.7223,1.26385 -3.50036,1.89577 -5.33418,1.89577c-1.28863,0 -2.33874,-0.42438 -3.15033,-1.27314c-0.81159,-0.84876 -1.21738,-2.2582 -1.21738,-4.22832l0,-12.00656l-3.81013,0l0,-2.47194l3.81013,-0.37172l0,-4.79519l3.81013,-0.76203l0,5.55722l5.52004,0l0,2.84366z" data-paper-data="{&quot;elementType&quot;:&quot;letter&quot;,&quot;baseline&quot;:67.08984375,&quot;baselineProportion&quot;:0.9856527977044476,&quot;fontSize&quot;:100}"></path><path d="M106.16883,154.95317c0,2.08163 0.50802,3.74508 1.52405,4.99034c1.01603,1.24526 2.34803,1.86789 3.99599,1.86789c1.11516,0 2.14978,-0.15488 3.10386,-0.46465c0.95408,-0.30977 1.74089,-0.64741 2.36042,-1.01294c0.61953,-0.36552 0.9293,-0.57307 0.9293,-0.62263l1.33819,1.97012c0,0.04956 -0.41199,0.35623 -1.23597,0.92001c-0.82398,0.56378 -1.84001,1.07799 -3.0481,1.54264c-1.20809,0.46465 -2.48743,0.69698 -3.83801,0.69698c-2.99854,0 -5.26913,-0.90452 -6.81177,-2.71356c-1.54264,-1.80904 -2.31396,-4.32434 -2.31396,-7.54592c0,-2.00729 0.3934,-3.82252 1.18021,-5.4457c0.78681,-1.62318 1.88958,-2.89942 3.30831,-3.82872c1.41873,-0.9293 3.03262,-1.39395 4.84165,-1.39395c5.32799,0 7.99198,2.97996 7.99198,8.93987c0,0.40889 -0.02478,0.81778 -0.07434,1.22668c-0.04956,0.40889 -0.08673,0.67529 -0.11152,0.7992l-13.14031,0.07434 M115.46183,152.09093c0,-1.54883 -0.33145,-2.80339 -0.99435,-3.76367c-0.6629,-0.96028 -1.71921,-1.44042 -3.16891,-1.44042c-1.47449,0 -2.64231,0.49563 -3.50346,1.48688c-0.86115,0.99125 -1.35368,2.23032 -1.47759,3.7172l9.14431,0z" data-paper-data="{&quot;elementType&quot;:&quot;letter&quot;,&quot;baseline&quot;:54.00390625,&quot;baselineProportion&quot;:0.9822380106571936,&quot;fontSize&quot;:100}"></path><path d="M134.99855,147.0727c0.71866,-0.78061 1.57052,-1.50237 2.55558,-2.16527c0.98506,-0.6629 2.05375,-0.99435 3.20609,-0.99435c0.55758,0 1.08728,0.04337 1.5891,0.1301c0.50182,0.08673 0.91381,0.17657 1.23597,0.2695c0.32216,0.09293 0.52041,0.15179 0.59475,0.17657l-0.18586,5.52004l-2.49052,0l-0.55758,-2.86224c-1.26385,0 -2.35423,0.30357 -3.27114,0.91071c-0.91691,0.60714 -1.66655,1.29482 -2.24891,2.06305l0,11.30029l3.81013,0.94789l0,2.10022l-10.85423,0l0,-2.10022l3.23396,-0.94789l0,-14.08819l-3.23396,-0.76203l0,-2.08163l6.28207,-0.18586l0.33455,2.76931z" data-paper-data="{&quot;elementType&quot;:&quot;letter&quot;,&quot;baseline&quot;:54.00390625,&quot;baselineProportion&quot;:1,&quot;fontSize&quot;:100}"></path><path d="M158.36398,146.99836c0.71866,-0.68149 1.70991,-1.36607 2.97376,-2.05375c1.26385,-0.68768 2.57106,-1.03152 3.92165,-1.03152c2.56487,0 4.33054,1.09038 5.29701,3.27114c0.63192,-0.63192 1.5953,-1.33509 2.89012,-2.10951c1.29482,-0.77442 2.69187,-1.16163 4.19114,-1.16163c2.03207,0 3.52205,0.59785 4.46993,1.79355c0.94789,1.1957 1.42183,2.88393 1.42183,5.06469l0,10.64978l2.86224,0.94789l0,2.10022l-9.14431,0l0,-2.10022l2.47194,-0.94789l0,-10.27806c0,-1.40015 -0.24162,-2.41618 -0.72485,-3.0481c-0.48324,-0.63192 -1.31961,-0.94789 -2.50911,-0.94789c-0.96647,0 -1.84311,0.22923 -2.62992,0.68768c-0.78681,0.45845 -1.43422,0.95408 -1.94224,1.48688c-0.50802,0.5328 -0.76203,0.82398 -0.76203,0.87354l0,11.22595l2.49052,0.94789l0,2.10022l-8.77259,0l0,-2.10022l2.49052,-0.94789l0,-10.27806c0,-1.40015 -0.24162,-2.41618 -0.72485,-3.0481c-0.48324,-0.63192 -1.31961,-0.94789 -2.50911,-0.94789c-0.96647,0 -1.84311,0.22923 -2.62992,0.68768c-0.78681,0.45845 -1.43422,0.95408 -1.94224,1.48688c-0.50802,0.5328 -0.76203,0.82398 -0.76203,0.87354l0,11.22595l2.47194,0.94789l0,2.10022l-9.51603,0l0,-2.10022l3.23396,-0.94789l0,-14.08819l-3.23396,-0.76203l0,-2.08163l6.28207,-0.18586l0.33455,2.69497z" data-paper-data="{&quot;elementType&quot;:&quot;letter&quot;,&quot;baseline&quot;:54.00390625,&quot;baselineProportion&quot;:1,&quot;fontSize&quot;:100}"></path><path d="M200.24107,146.12482c1.87099,-1.47449 3.77296,-2.21173 5.7059,-2.21173c2.66399,0 4.66199,0.88284 5.99399,2.64851c1.332,1.76567 1.998,4.18495 1.998,7.25783c0,2.18076 -0.3996,4.10131 -1.1988,5.76166c-0.7992,1.66035 -1.9856,2.95208 -3.55922,3.87518c-1.57362,0.9231 -3.47558,1.38466 -5.7059,1.38466c-1.23907,0 -2.37901,-0.06815 -3.41982,-0.20445c-1.04082,-0.1363 -1.86789,-0.28189 -2.48123,-0.43677c-0.61334,-0.15488 -0.99435,-0.25711 -1.14304,-0.30667l0,-25.68586l-3.0481,-0.76203l0,-2.10022l6.85824,-0.18586l0,10.96574 M200.24107,161.4211c0,0.02478 0.34074,0.09603 1.02223,0.21374c0.68149,0.11771 1.61079,0.17657 2.7879,0.17657c2.08163,0 3.584,-0.70007 4.50711,-2.10022c0.9231,-1.40015 1.38466,-3.24016 1.38466,-5.52004c0,-2.23032 -0.38721,-3.99289 -1.16163,-5.28772c-0.77442,-1.29482 -1.97321,-1.94224 -3.59639,-1.94224c-1.01603,0 -1.89267,0.18276 -2.62992,0.54829c-0.73724,0.36552 -1.30722,0.75893 -1.70991,1.18021c-0.4027,0.42128 -0.60405,0.6691 -0.60405,0.74344l0,11.98797z" data-paper-data="{&quot;elementType&quot;:&quot;letter&quot;,&quot;baseline&quot;:77.001953125,&quot;baselineProportion&quot;:0.9874765184721352,&quot;fontSize&quot;:100}"></path><path d="M232.54638,143.91308c2.81268,0 5.00583,0.90762 6.57945,2.72285c1.57362,1.81523 2.36042,4.27168 2.36042,7.36935c0,2.1312 -0.3934,4.02077 -1.18021,5.66873c-0.78681,1.64796 -1.90197,2.9211 -3.34548,3.81942c-1.44351,0.89832 -3.10696,1.34749 -4.99034,1.34749c-2.88703,0 -5.12974,-0.86735 -6.72813,-2.60204c-1.5984,-1.73469 -2.39759,-4.28717 -2.39759,-7.65743c0,-2.1312 0.41199,-4.00528 1.23597,-5.62227c0.82398,-1.61698 1.96702,-2.86224 3.42912,-3.73579c1.4621,-0.87354 3.14103,-1.31031 5.03681,-1.31031 M232.36052,146.96119c-1.88338,0 -3.27423,0.61644 -4.17256,1.84931c-0.89832,1.23287 -1.34749,3.08837 -1.34749,5.56651c0,4.94388 1.77806,7.42201 5.33418,7.4344c1.8586,0 3.20918,-0.63502 4.05175,-1.90507c0.84257,-1.27004 1.26385,-3.17511 1.26385,-5.7152c0,-4.81997 -1.70991,-7.22996 -5.12974,-7.22996z" data-paper-data="{&quot;elementType&quot;:&quot;letter&quot;,&quot;baseline&quot;:54.00390625,&quot;baselineProportion&quot;:0.9822380106571936,&quot;fontSize&quot;:100}"></path><path d="M259.53608,151.71921l4.55357,-7.22996l5.52004,-0.18586l0,2.26749l-3.23396,0.57617l-4.75802,7.0441l4.86953,7.3043l3.51275,0.87354l0,2.10022l-9.293,0l0,-2.10022l1.52405,-0.44606l-3.12245,-5.03681l-4.72085,7.58309l-5.52004,0l0,-2.10022l3.34548,-0.87354l4.85095,-7.11844l-4.88812,-7.26713l-2.918,-0.53899l0,-2.08163l8.67966,-0.18586l0,2.26749l-1.33819,0.24162l2.93659,4.90671z" data-paper-data="{&quot;elementType&quot;:&quot;letter&quot;,&quot;baseline&quot;:52.978515625,&quot;baselineProportion&quot;:1,&quot;fontSize&quot;:100}"></path></g></g></g></g><g data-paper-data="{&quot;elementType&quot;:&quot;emblem&quot;}" fill="#ffffff" stroke-width="1"><g data-paper-data="{&quot;baselineProportion&quot;:0.9856527977044476,&quot;fontSize&quot;:100,&quot;baseline&quot;:67.08984375,&quot;elementType&quot;:&quot;word&quot;}"><path d="M48.35668,146.24399l-4.5532,0l0,10.08757c0,1.27755 0.52124,1.91633 1.56373,1.91633c0.67455,0 1.49218,-0.26062 2.4529,-0.78186l0.84319,1.65571c-1.42064,1.04248 -2.88727,1.56373 -4.3999,1.56373c-1.06293,0 -1.92911,-0.35005 -2.59855,-1.05015c-0.66944,-0.7001 -1.00416,-1.86267 -1.00416,-3.48772l0,-9.9036l-3.14278,0l0,-2.03898l3.14278,-0.30661l0,-3.95531l3.14278,-0.62856l0,4.58387l4.5532,0l0,2.34559z" data-paper-data="{&quot;elementType&quot;:&quot;letter&quot;,&quot;baseline&quot;:67.08984375,&quot;baselineProportion&quot;:0.9856527977044476,&quot;fontSize&quot;:100}"></path><path d="M55.99368,158.49318c0,-0.68477 0.1993,-1.22134 0.5979,-1.60972c0.3986,-0.38838 0.87896,-0.58256 1.44108,-0.58256c0.62345,0 1.11914,0.19419 1.48707,0.58256c0.36794,0.38838 0.5519,0.92495 0.5519,1.60972c0,0.67455 -0.19163,1.20857 -0.5749,1.60205c-0.38327,0.39349 -0.87129,0.59023 -1.46408,0.59023c-0.62345,0 -1.11914,-0.19163 -1.48707,-0.5749c-0.36794,-0.38327 -0.5519,-0.92239 -0.5519,-1.61738z" data-paper-data="{&quot;elementType&quot;:&quot;letter&quot;,&quot;baseline&quot;:12.98828125,&quot;baselineProportion&quot;:0.9300699300699301,&quot;fontSize&quot;:100}"></path></g></g></g></svg>