<?xml version="1.0" encoding="UTF-8" standalone="no"?>
<!-- Created with Inkscape (http://www.inkscape.org/) -->

<svg
   xmlns:dc="http://purl.org/dc/elements/1.1/"
   xmlns:cc="http://creativecommons.org/ns#"
   xmlns:rdf="http://www.w3.org/1999/02/22-rdf-syntax-ns#"
   xmlns:svg="http://www.w3.org/2000/svg"
   xmlns="http://www.w3.org/2000/svg"
   xmlns:sodipodi="http://sodipodi.sourceforge.net/DTD/sodipodi-0.dtd"
   xmlns:inkscape="http://www.inkscape.org/namespaces/inkscape"
   width="28.625866mm"
   height="26.243929mm"
   viewBox="0 0 28.625866 26.243929"
   version="1.1"
   id="svg8"
   inkscape:version="0.92pre2 r"
   sodipodi:docname="icon.svg">
  <defs
     id="defs2" />
  <sodipodi:namedview
     id="base"
     pagecolor="#ffffff"
     bordercolor="#666666"
     borderopacity="1.0"
     inkscape:pageopacity="0.0"
     inkscape:pageshadow="2"
     inkscape:zoom="3.959798"
     inkscape:cx="22.096064"
     inkscape:cy="70.688172"
     inkscape:document-units="mm"
     inkscape:current-layer="layer1"
     showgrid="false"
     inkscape:window-width="1877"
     inkscape:window-height="1025"
     inkscape:window-x="43"
     inkscape:window-y="27"
     inkscape:window-maximized="1" />
  <metadata
     id="metadata5">
    <rdf:RDF>
      <cc:Work
         rdf:about="">
        <dc:format>image/svg+xml</dc:format>
        <dc:type
           rdf:resource="http://purl.org/dc/dcmitype/StillImage" />
        <dc:title></dc:title>
      </cc:Work>
    </rdf:RDF>
  </metadata>
  <g
     inkscape:label="Layer 1"
     inkscape:groupmode="layer"
     id="layer1">
    <rect
       style="fill:#000000;stroke:#000000;stroke-width:0.27649909"
       id="rect3687"
       width="28.349367"
       height="25.96743"
       x="0.13824955"
       y="0.13824955" />
    <path
       id="path3665"
       d="m 10.959337,12.916912 -6.1647918,6.164792 q -0.132288,0.132291 -0.304272,0.132291 -0.171976,0 -0.304264,-0.132291 l -0.661464,-0.661458 q -0.132288,-0.132292 -0.132288,-0.304271 0,-0.17198 0.132288,-0.304271 l 5.199064,-5.199063 -5.199064,-5.1990625 q -0.132288,-0.1322912 -0.132288,-0.3042704 0,-0.1719792 0.132288,-0.3042704 l 0.661464,-0.6614592 q 0.132288,-0.1322908 0.304264,-0.1322908 0.171984,0 0.304272,0.1322908 l 6.1647918,6.1647925 q 0.132296,0.132292 0.132296,0.30427 0,0.171979 -0.132296,0.304271 z m 14.274272,6.04573 v 0.846666 q 0,0.185208 -0.119064,0.304271 -0.119064,0.119063 -0.304272,0.119063 h -12.7 q -0.185208,0 -0.304264,-0.119063 -0.119064,-0.119063 -0.119064,-0.304271 v -0.846666 q 0,-0.185209 0.119064,-0.304271 0.119056,-0.119063 0.304264,-0.119063 h 12.7 q 0.185208,0 0.304272,0.119063 0.119064,0.119062 0.119064,0.304271 z"
       inkscape:connector-curvature="0"
       style="stroke-width:0.01322917;fill:#ffffff" />
  </g>
</svg>
